# xmcd
#
# Track frame offsets:
#	150
#	17041
#	34322
#	48368
#	62374
#	79836
#	95524
#	110828
#	129749
#	144787
#	157733
#	171451
#
# Disc length: 2495 seconds
#
# Revision: 1
# Processed by: cddbd v1.5.2PL0 Copyright (c) Steve Scherf et al.
# Submitted via: audiograbber 1.83.01
#
DISCID=9a09bd0c
DTITLE=Theo Sieben - Until Grass
DYEAR=2011
DGENRE=Alternative
TTITLE0=A Roadsong
TTITLE1=Until Grass
TTITLE2=Great
TTITLE3=Sunny Satellite
TTITLE4=Gloria
TTITLE5=12 Bar Blues
TTITLE6=Sound of the Stone
TTITLE7=Keeper of a Lighthouse
TTITLE8=Poor, lonely Father
TTITLE9=Coalminer's Blues
TTITLE10=Optimist, Andy!
TTITLE11=A Risen Man
EXTD=
EXTT0=
EXTT1=
EXTT2=
EXTT3=
EXTT4=
EXTT5=
EXTT6=
EXTT7=
EXTT8=
EXTT9=
EXTT10=
EXTT11=
PLAYORDER=
